%TF.GenerationSoftware,KiCad,Pcbnew,10.0.2*%
%TF.CreationDate,2026-06-21T05:13:28+02:00*%
%TF.ProjectId,pcb_stroopwafelgun,7063625f-7374-4726-9f6f-70776166656c,rev?*%
%TF.SameCoordinates,Original*%
%TF.FileFunction,Copper,L1,Top*%
%TF.FilePolarity,Positive*%
%FSLAX46Y46*%
G04 Gerber Fmt 4.6, Leading zero omitted, Abs format (unit mm)*
G04 Created by KiCad (PCBNEW 10.0.2) date 2026-06-21 05:13:28*
%MOMM*%
%LPD*%
G01*
G04 APERTURE LIST*
G04 Aperture macros list*
%AMRoundRect*
0 Rectangle with rounded corners*
0 $1 Rounding radius*
0 $2 $3 $4 $5 $6 $7 $8 $9 X,Y pos of 4 corners*
0 Add a 4 corners polygon primitive as box body*
4,1,4,$2,$3,$4,$5,$6,$7,$8,$9,$2,$3,0*
0 Add four circle primitives for the rounded corners*
1,1,$1+$1,$2,$3*
1,1,$1+$1,$4,$5*
1,1,$1+$1,$6,$7*
1,1,$1+$1,$8,$9*
0 Add four rect primitives between the rounded corners*
20,1,$1+$1,$2,$3,$4,$5,0*
20,1,$1+$1,$4,$5,$6,$7,0*
20,1,$1+$1,$6,$7,$8,$9,0*
20,1,$1+$1,$8,$9,$2,$3,0*%
G04 Aperture macros list end*
%ADD10C,0.300000*%
%TA.AperFunction,NonConductor*%
%ADD11C,0.300000*%
%TD*%
%TA.AperFunction,ComponentPad*%
%ADD12R,1.700000X1.700000*%
%TD*%
%TA.AperFunction,ComponentPad*%
%ADD13C,1.700000*%
%TD*%
%TA.AperFunction,ComponentPad*%
%ADD14R,1.710000X1.800000*%
%TD*%
%TA.AperFunction,ComponentPad*%
%ADD15O,1.710000X1.800000*%
%TD*%
%TA.AperFunction,SMDPad,CuDef*%
%ADD16RoundRect,0.500000X-0.875000X-0.500000X0.875000X-0.500000X0.875000X0.500000X-0.875000X0.500000X0*%
%TD*%
%TA.AperFunction,SMDPad,CuDef*%
%ADD17C,1.700000*%
%TD*%
%TA.AperFunction,SMDPad,CuDef*%
%ADD18RoundRect,0.275000X-0.275000X0.975000X-0.275000X-0.975000X0.275000X-0.975000X0.275000X0.975000X0*%
%TD*%
%TA.AperFunction,SMDPad,CuDef*%
%ADD19RoundRect,0.135000X-0.135000X-0.185000X0.135000X-0.185000X0.135000X0.185000X-0.135000X0.185000X0*%
%TD*%
%TA.AperFunction,ViaPad*%
%ADD20C,0.600000*%
%TD*%
%TA.AperFunction,Conductor*%
%ADD21C,0.200000*%
%TD*%
G04 APERTURE END LIST*
D10*
D11*
X162197368Y-111800828D02*
X162197368Y-112800828D01*
X161840225Y-111229400D02*
X161483082Y-112300828D01*
X161483082Y-112300828D02*
X162411653Y-112300828D01*
X163268796Y-111300828D02*
X163411653Y-111300828D01*
X163411653Y-111300828D02*
X163554510Y-111372257D01*
X163554510Y-111372257D02*
X163625939Y-111443685D01*
X163625939Y-111443685D02*
X163697367Y-111586542D01*
X163697367Y-111586542D02*
X163768796Y-111872257D01*
X163768796Y-111872257D02*
X163768796Y-112229400D01*
X163768796Y-112229400D02*
X163697367Y-112515114D01*
X163697367Y-112515114D02*
X163625939Y-112657971D01*
X163625939Y-112657971D02*
X163554510Y-112729400D01*
X163554510Y-112729400D02*
X163411653Y-112800828D01*
X163411653Y-112800828D02*
X163268796Y-112800828D01*
X163268796Y-112800828D02*
X163125939Y-112729400D01*
X163125939Y-112729400D02*
X163054510Y-112657971D01*
X163054510Y-112657971D02*
X162983081Y-112515114D01*
X162983081Y-112515114D02*
X162911653Y-112229400D01*
X162911653Y-112229400D02*
X162911653Y-111872257D01*
X162911653Y-111872257D02*
X162983081Y-111586542D01*
X162983081Y-111586542D02*
X163054510Y-111443685D01*
X163054510Y-111443685D02*
X163125939Y-111372257D01*
X163125939Y-111372257D02*
X163268796Y-111300828D01*
X164411652Y-112800828D02*
X164411652Y-111800828D01*
X164411652Y-111943685D02*
X164483081Y-111872257D01*
X164483081Y-111872257D02*
X164625938Y-111800828D01*
X164625938Y-111800828D02*
X164840224Y-111800828D01*
X164840224Y-111800828D02*
X164983081Y-111872257D01*
X164983081Y-111872257D02*
X165054510Y-112015114D01*
X165054510Y-112015114D02*
X165054510Y-112800828D01*
X165054510Y-112015114D02*
X165125938Y-111872257D01*
X165125938Y-111872257D02*
X165268795Y-111800828D01*
X165268795Y-111800828D02*
X165483081Y-111800828D01*
X165483081Y-111800828D02*
X165625938Y-111872257D01*
X165625938Y-111872257D02*
X165697367Y-112015114D01*
X165697367Y-112015114D02*
X165697367Y-112800828D01*
X166411652Y-112800828D02*
X166411652Y-111800828D01*
X166411652Y-111943685D02*
X166483081Y-111872257D01*
X166483081Y-111872257D02*
X166625938Y-111800828D01*
X166625938Y-111800828D02*
X166840224Y-111800828D01*
X166840224Y-111800828D02*
X166983081Y-111872257D01*
X166983081Y-111872257D02*
X167054510Y-112015114D01*
X167054510Y-112015114D02*
X167054510Y-112800828D01*
X167054510Y-112015114D02*
X167125938Y-111872257D01*
X167125938Y-111872257D02*
X167268795Y-111800828D01*
X167268795Y-111800828D02*
X167483081Y-111800828D01*
X167483081Y-111800828D02*
X167625938Y-111872257D01*
X167625938Y-111872257D02*
X167697367Y-112015114D01*
X167697367Y-112015114D02*
X167697367Y-112800828D01*
X169411652Y-112800828D02*
X170197367Y-111800828D01*
X169411652Y-111800828D02*
X170197367Y-112800828D01*
X171768795Y-111300828D02*
X172697367Y-111300828D01*
X172697367Y-111300828D02*
X172197367Y-111872257D01*
X172197367Y-111872257D02*
X172411652Y-111872257D01*
X172411652Y-111872257D02*
X172554510Y-111943685D01*
X172554510Y-111943685D02*
X172625938Y-112015114D01*
X172625938Y-112015114D02*
X172697367Y-112157971D01*
X172697367Y-112157971D02*
X172697367Y-112515114D01*
X172697367Y-112515114D02*
X172625938Y-112657971D01*
X172625938Y-112657971D02*
X172554510Y-112729400D01*
X172554510Y-112729400D02*
X172411652Y-112800828D01*
X172411652Y-112800828D02*
X171983081Y-112800828D01*
X171983081Y-112800828D02*
X171840224Y-112729400D01*
X171840224Y-112729400D02*
X171768795Y-112657971D01*
X173411652Y-112800828D02*
X173697366Y-112800828D01*
X173697366Y-112800828D02*
X173840223Y-112729400D01*
X173840223Y-112729400D02*
X173911652Y-112657971D01*
X173911652Y-112657971D02*
X174054509Y-112443685D01*
X174054509Y-112443685D02*
X174125938Y-112157971D01*
X174125938Y-112157971D02*
X174125938Y-111586542D01*
X174125938Y-111586542D02*
X174054509Y-111443685D01*
X174054509Y-111443685D02*
X173983081Y-111372257D01*
X173983081Y-111372257D02*
X173840223Y-111300828D01*
X173840223Y-111300828D02*
X173554509Y-111300828D01*
X173554509Y-111300828D02*
X173411652Y-111372257D01*
X173411652Y-111372257D02*
X173340223Y-111443685D01*
X173340223Y-111443685D02*
X173268795Y-111586542D01*
X173268795Y-111586542D02*
X173268795Y-111943685D01*
X173268795Y-111943685D02*
X173340223Y-112086542D01*
X173340223Y-112086542D02*
X173411652Y-112157971D01*
X173411652Y-112157971D02*
X173554509Y-112229400D01*
X173554509Y-112229400D02*
X173840223Y-112229400D01*
X173840223Y-112229400D02*
X173983081Y-112157971D01*
X173983081Y-112157971D02*
X174054509Y-112086542D01*
X174054509Y-112086542D02*
X174125938Y-111943685D01*
X174768794Y-112800828D02*
X174768794Y-111800828D01*
X174768794Y-111943685D02*
X174840223Y-111872257D01*
X174840223Y-111872257D02*
X174983080Y-111800828D01*
X174983080Y-111800828D02*
X175197366Y-111800828D01*
X175197366Y-111800828D02*
X175340223Y-111872257D01*
X175340223Y-111872257D02*
X175411652Y-112015114D01*
X175411652Y-112015114D02*
X175411652Y-112800828D01*
X175411652Y-112015114D02*
X175483080Y-111872257D01*
X175483080Y-111872257D02*
X175625937Y-111800828D01*
X175625937Y-111800828D02*
X175840223Y-111800828D01*
X175840223Y-111800828D02*
X175983080Y-111872257D01*
X175983080Y-111872257D02*
X176054509Y-112015114D01*
X176054509Y-112015114D02*
X176054509Y-112800828D01*
X176768794Y-112800828D02*
X176768794Y-111800828D01*
X176768794Y-111943685D02*
X176840223Y-111872257D01*
X176840223Y-111872257D02*
X176983080Y-111800828D01*
X176983080Y-111800828D02*
X177197366Y-111800828D01*
X177197366Y-111800828D02*
X177340223Y-111872257D01*
X177340223Y-111872257D02*
X177411652Y-112015114D01*
X177411652Y-112015114D02*
X177411652Y-112800828D01*
X177411652Y-112015114D02*
X177483080Y-111872257D01*
X177483080Y-111872257D02*
X177625937Y-111800828D01*
X177625937Y-111800828D02*
X177840223Y-111800828D01*
X177840223Y-111800828D02*
X177983080Y-111872257D01*
X177983080Y-111872257D02*
X178054509Y-112015114D01*
X178054509Y-112015114D02*
X178054509Y-112800828D01*
D12*
%TO.P,J2,1,Pin_1_1*%
%TO.N,Net-(J2-Pin_1)*%
X188030000Y-91850000D03*
D13*
%TO.P,J2,2,Pin_2_2*%
X188030000Y-89310000D03*
%TD*%
D12*
%TO.P,J5,1,Pin_1_1*%
%TO.N,Net-(J1-Pin_3)*%
X188000000Y-76800000D03*
D13*
%TO.P,J5,2,Pin_2_2*%
%TO.N,Net-(J4-Pin_1)*%
X188000000Y-74260000D03*
%TD*%
D14*
%TO.P,Q1,1,E_1*%
%TO.N,Net-(J1-Pin_3)*%
X168430000Y-102550000D03*
D15*
%TO.P,Q1,2,C_2*%
%TO.N,Net-(J2-Pin_1)*%
X170710000Y-102550000D03*
%TO.P,Q1,3,B_3*%
%TO.N,Net-(Q1-B)*%
X172990000Y-102550000D03*
%TD*%
D12*
%TO.P,J3,1,Pin_1_1*%
%TO.N,Net-(J3-Pin_1)*%
X188030000Y-100600000D03*
D13*
%TO.P,J3,2,Pin_2_2*%
%TO.N,Net-(J3-Pin_2)*%
X188030000Y-98060000D03*
%TO.P,J3,3,Pin_3_3*%
%TO.N,Net-(J3-Pin_3)*%
X188030000Y-95520000D03*
%TD*%
D12*
%TO.P,J4,1,Pin_1_1*%
%TO.N,Net-(J4-Pin_1)*%
X188030000Y-106775000D03*
D13*
%TO.P,J4,2,Pin_2_2*%
X188030000Y-104235000D03*
%TD*%
D16*
%TO.P,U1,1,P26_A0_D0_1*%
%TO.N,Net-(U1-P26_A0_D0)*%
X167265000Y-81890000D03*
%TO.P,U1,2,P27_A1_D1_2*%
%TO.N,Net-(J1-Pin_1)*%
X167265000Y-84430000D03*
%TO.P,U1,3,P28_A2_D2_3*%
%TO.N,Net-(J3-Pin_3)*%
X167265000Y-86970000D03*
%TO.P,U1,4,P29_A3_D3_4*%
%TO.N,Net-(J3-Pin_2)*%
X167265000Y-89510000D03*
%TO.P,U1,5,P6_SDA_D4_5*%
%TO.N,unconnected-(U1-P6_SDA_D4-Pad5)*%
X167265000Y-92050000D03*
%TO.P,U1,6,P7_SCL_D5_6*%
%TO.N,unconnected-(U1-P7_SCL_D5-Pad6)*%
X167265000Y-94590000D03*
%TO.P,U1,7,P0_D6_TX_7*%
%TO.N,unconnected-(U1-P0_D6_TX-Pad7)*%
X167265000Y-97130000D03*
%TO.P,U1,8,P1_D7_RX_8*%
%TO.N,unconnected-(U1-P1_D7_RX-Pad8)*%
X183430000Y-97130000D03*
%TO.P,U1,9,P2_D8_SCK_9*%
%TO.N,unconnected-(U1-P2_D8_SCK-Pad9)*%
X183430000Y-94590000D03*
%TO.P,U1,10,P4_D9_MISO_10*%
%TO.N,unconnected-(U1-P4_D9_MISO-Pad10)*%
X183430000Y-92050000D03*
%TO.P,U1,11,P3_D10_MOSI_11*%
%TO.N,unconnected-(U1-P3_D10_MOSI-Pad11)*%
X183430000Y-89510000D03*
%TO.P,U1,12,3V3_12*%
%TO.N,Net-(J3-Pin_1)*%
X183430000Y-86970000D03*
%TO.P,U1,13,GND_13*%
%TO.N,Net-(J1-Pin_3)*%
X183430000Y-84430000D03*
%TO.P,U1,14,VBUS_14*%
%TO.N,Net-(J1-Pin_2)*%
X183430000Y-81890000D03*
D17*
%TO.P,U1,24,SWDIO_24*%
%TO.N,unconnected-(U1-SWDIO-Pad24)*%
X174177000Y-81132000D03*
%TO.P,U1,25,SWDCLK_25*%
%TO.N,unconnected-(U1-SWDCLK-Pad25)*%
X176717000Y-81132000D03*
%TO.P,U1,26,RST_26*%
%TO.N,unconnected-(U1-RST-Pad26)*%
X174177000Y-83672000D03*
%TO.P,U1,27,GND_27*%
%TO.N,unconnected-(U1-GND-Pad27)*%
X176717000Y-83672000D03*
D18*
%TO.P,U1,32,BAT_32*%
%TO.N,unconnected-(U1-BAT-Pad32)*%
X174177000Y-98150000D03*
%TO.P,U1,33,GND_33*%
%TO.N,unconnected-(U1-GND-Pad33)*%
X176717000Y-98150000D03*
%TD*%
D12*
%TO.P,J1,1,Pin_1_1*%
%TO.N,Net-(J1-Pin_1)*%
X188000000Y-85550000D03*
D13*
%TO.P,J1,2,Pin_2_2*%
%TO.N,Net-(J1-Pin_2)*%
X188000000Y-83010000D03*
%TO.P,J1,3,Pin_3_3*%
%TO.N,Net-(J1-Pin_3)*%
X188000000Y-80470000D03*
%TD*%
D19*
%TO.P,R1,1*%
%TO.N,Net-(U1-P26_A0_D0)*%
X180920000Y-77050000D03*
%TO.P,R1,2*%
%TO.N,Net-(Q1-B)*%
X181940000Y-77050000D03*
%TD*%
D20*
%TO.N,Net-(J1-Pin_3)*%
X166430000Y-101050000D03*
X168200000Y-76400000D03*
%TO.N,Net-(Q1-B)*%
X182930000Y-77050000D03*
X175930000Y-101550000D03*
%TO.N,Net-(J1-Pin_1)*%
X165930000Y-85550000D03*
X186030000Y-85550000D03*
%TD*%
%TO.N,Net-(J2-Pin_1)*%
D21*
X170710000Y-102550000D02*
X170710000Y-100770000D01*
X170930000Y-100550000D02*
X183430000Y-100550000D01*
X185200000Y-98780000D02*
X185200000Y-94680000D01*
X185200000Y-94680000D02*
X188030000Y-91850000D01*
X188030000Y-89310000D02*
X188030000Y-91850000D01*
X183430000Y-100550000D02*
X185200000Y-98780000D01*
X170710000Y-100770000D02*
X170930000Y-100550000D01*
%TO.N,Net-(J1-Pin_3)*%
X183530000Y-77298529D02*
X183530000Y-76801471D01*
X183158529Y-76430000D02*
X168230000Y-76430000D01*
X189150000Y-81690000D02*
X189150000Y-83486346D01*
X166930000Y-101050000D02*
X168030000Y-102150000D01*
X181621076Y-82621076D02*
X181621076Y-79207453D01*
X187930000Y-80470000D02*
X189150000Y-81690000D01*
X168230000Y-76430000D02*
X168200000Y-76400000D01*
X188000000Y-76800000D02*
X188000000Y-80470000D01*
X183700000Y-84160000D02*
X183430000Y-84430000D01*
X189150000Y-83486346D02*
X188476346Y-84160000D01*
X188476346Y-84160000D02*
X183700000Y-84160000D01*
X183460000Y-84460000D02*
X183430000Y-84430000D01*
X183430000Y-84430000D02*
X181621076Y-82621076D01*
X183530000Y-76801471D02*
X183158529Y-76430000D01*
X181621076Y-79207453D02*
X183530000Y-77298529D01*
X166430000Y-101050000D02*
X166930000Y-101050000D01*
%TO.N,Net-(J4-Pin_1)*%
X190230000Y-76490000D02*
X188000000Y-74260000D01*
X188030000Y-106775000D02*
X188030000Y-104235000D01*
X188030000Y-104235000D02*
X190230000Y-102035000D01*
X190230000Y-102035000D02*
X190230000Y-76490000D01*
%TO.N,Net-(Q1-B)*%
X182930000Y-77050000D02*
X181940000Y-77050000D01*
X172990000Y-102550000D02*
X174930000Y-102550000D01*
X174930000Y-102550000D02*
X175930000Y-101550000D01*
%TO.N,Net-(J3-Pin_1)*%
X188030000Y-100600000D02*
X189830000Y-98800000D01*
X189830000Y-89483654D02*
X187316346Y-86970000D01*
X187316346Y-86970000D02*
X183430000Y-86970000D01*
X189830000Y-98800000D02*
X189830000Y-89483654D01*
%TO.N,Net-(J3-Pin_2)*%
X165590000Y-103210000D02*
X165590000Y-91185000D01*
X174930000Y-104050000D02*
X166430000Y-104050000D01*
X166430000Y-104050000D02*
X165590000Y-103210000D01*
X165590000Y-91185000D02*
X167265000Y-89510000D01*
X183595685Y-100950000D02*
X178030000Y-100950000D01*
X186485686Y-98060000D02*
X183595685Y-100950000D01*
X178030000Y-100950000D02*
X174930000Y-104050000D01*
X188030000Y-98060000D02*
X186485686Y-98060000D01*
%TO.N,Net-(J3-Pin_3)*%
X165190000Y-103375686D02*
X166264314Y-104450000D01*
X166264314Y-104450000D02*
X175095686Y-104450000D01*
X175095686Y-104450000D02*
X178195686Y-101350000D01*
X167265000Y-86970000D02*
X165190000Y-89045000D01*
X165190000Y-89045000D02*
X165190000Y-103375686D01*
X189180000Y-96670000D02*
X188030000Y-95520000D01*
X183761371Y-101350000D02*
X185901372Y-99210000D01*
X185901372Y-99210000D02*
X188506346Y-99210000D01*
X189180000Y-98536346D02*
X189180000Y-96670000D01*
X188506346Y-99210000D02*
X189180000Y-98536346D01*
X178195686Y-101350000D02*
X183761371Y-101350000D01*
%TO.N,Net-(U1-P26_A0_D0)*%
X180920000Y-77050000D02*
X172105000Y-77050000D01*
X172105000Y-77050000D02*
X167265000Y-81890000D01*
%TO.N,Net-(J1-Pin_1)*%
X166050000Y-84430000D02*
X167265000Y-84430000D01*
X165430000Y-85050000D02*
X166050000Y-84430000D01*
X165930000Y-85550000D02*
X165430000Y-85050000D01*
X187930000Y-85550000D02*
X186030000Y-85550000D01*
%TO.N,Net-(J1-Pin_2)*%
X184290000Y-81890000D02*
X183430000Y-81890000D01*
X188000000Y-83010000D02*
X185410000Y-83010000D01*
X185410000Y-83010000D02*
X184290000Y-81890000D01*
%TD*%
M02*
