%TF.GenerationSoftware,KiCad,Pcbnew,10.0.2*%
%TF.CreationDate,2026-06-21T05:13:28+02:00*%
%TF.ProjectId,pcb_stroopwafelgun,7063625f-7374-4726-9f6f-70776166656c,rev?*%
%TF.SameCoordinates,Original*%
%TF.FileFunction,Copper,L2,Bot*%
%TF.FilePolarity,Positive*%
%FSLAX46Y46*%
G04 Gerber Fmt 4.6, Leading zero omitted, Abs format (unit mm)*
G04 Created by KiCad (PCBNEW 10.0.2) date 2026-06-21 05:13:28*
%MOMM*%
%LPD*%
G01*
G04 APERTURE LIST*
%TA.AperFunction,ComponentPad*%
%ADD10R,1.700000X1.700000*%
%TD*%
%TA.AperFunction,ComponentPad*%
%ADD11C,1.700000*%
%TD*%
%TA.AperFunction,ComponentPad*%
%ADD12R,1.710000X1.800000*%
%TD*%
%TA.AperFunction,ComponentPad*%
%ADD13O,1.710000X1.800000*%
%TD*%
%TA.AperFunction,ViaPad*%
%ADD14C,0.600000*%
%TD*%
%TA.AperFunction,Conductor*%
%ADD15C,0.200000*%
%TD*%
G04 APERTURE END LIST*
D10*
%TO.P,J2,1,Pin_1_1*%
%TO.N,Net-(J2-Pin_1)*%
X188030000Y-91850000D03*
D11*
%TO.P,J2,2,Pin_2_2*%
X188030000Y-89310000D03*
%TD*%
D10*
%TO.P,J5,1,Pin_1_1*%
%TO.N,Net-(J1-Pin_3)*%
X188000000Y-76800000D03*
D11*
%TO.P,J5,2,Pin_2_2*%
%TO.N,Net-(J4-Pin_1)*%
X188000000Y-74260000D03*
%TD*%
D12*
%TO.P,Q1,1,E_1*%
%TO.N,Net-(J1-Pin_3)*%
X168430000Y-102550000D03*
D13*
%TO.P,Q1,2,C_2*%
%TO.N,Net-(J2-Pin_1)*%
X170710000Y-102550000D03*
%TO.P,Q1,3,B_3*%
%TO.N,Net-(Q1-B)*%
X172990000Y-102550000D03*
%TD*%
D10*
%TO.P,J3,1,Pin_1_1*%
%TO.N,Net-(J3-Pin_1)*%
X188030000Y-100600000D03*
D11*
%TO.P,J3,2,Pin_2_2*%
%TO.N,Net-(J3-Pin_2)*%
X188030000Y-98060000D03*
%TO.P,J3,3,Pin_3_3*%
%TO.N,Net-(J3-Pin_3)*%
X188030000Y-95520000D03*
%TD*%
D10*
%TO.P,J4,1,Pin_1_1*%
%TO.N,Net-(J4-Pin_1)*%
X188030000Y-106775000D03*
D11*
%TO.P,J4,2,Pin_2_2*%
X188030000Y-104235000D03*
%TD*%
D10*
%TO.P,J1,1,Pin_1_1*%
%TO.N,Net-(J1-Pin_1)*%
X188000000Y-85550000D03*
D11*
%TO.P,J1,2,Pin_2_2*%
%TO.N,Net-(J1-Pin_2)*%
X188000000Y-83010000D03*
%TO.P,J1,3,Pin_3_3*%
%TO.N,Net-(J1-Pin_3)*%
X188000000Y-80470000D03*
%TD*%
D14*
%TO.N,Net-(J1-Pin_3)*%
X166430000Y-101050000D03*
X168200000Y-76400000D03*
%TO.N,Net-(Q1-B)*%
X182930000Y-77050000D03*
X175930000Y-101550000D03*
%TO.N,Net-(J1-Pin_1)*%
X165930000Y-85550000D03*
X186030000Y-85550000D03*
%TD*%
%TO.N,Net-(J1-Pin_3)*%
D15*
X166430000Y-90200000D02*
X165330000Y-89100000D01*
X165330000Y-89100000D02*
X165330000Y-79270000D01*
X166430000Y-90200000D02*
X166430000Y-101050000D01*
X165330000Y-79270000D02*
X168200000Y-76400000D01*
X166430000Y-90050000D02*
X166430000Y-90200000D01*
%TO.N,Net-(Q1-B)*%
X186630000Y-90850000D02*
X175930000Y-101550000D01*
X182930000Y-81050000D02*
X186630000Y-84750000D01*
X186630000Y-84750000D02*
X186630000Y-90850000D01*
X182930000Y-78050000D02*
X182930000Y-81050000D01*
X182930000Y-77050000D02*
X182930000Y-78050000D01*
%TO.N,Net-(J1-Pin_1)*%
X186030000Y-85550000D02*
X165930000Y-85550000D01*
%TD*%
M02*
