%TF.GenerationSoftware,KiCad,Pcbnew,10.0.2*%
%TF.CreationDate,2026-06-21T05:13:28+02:00*%
%TF.ProjectId,pcb_stroopwafelgun,7063625f-7374-4726-9f6f-70776166656c,rev?*%
%TF.SameCoordinates,Original*%
%TF.FileFunction,Legend,Top*%
%TF.FilePolarity,Positive*%
%FSLAX46Y46*%
G04 Gerber Fmt 4.6, Leading zero omitted, Abs format (unit mm)*
G04 Created by KiCad (PCBNEW 10.0.2) date 2026-06-21 05:13:28*
%MOMM*%
%LPD*%
G01*
G04 APERTURE LIST*
%ADD10C,0.135138*%
%ADD11C,0.200000*%
%ADD12C,0.120000*%
%ADD13C,0.100000*%
%ADD14C,0.127000*%
%ADD15C,0.504000*%
G04 APERTURE END LIST*
D10*
X160835770Y-107450000D02*
X163470966Y-106098616D01*
X160835770Y-107450000D02*
X163470966Y-108801384D01*
X160903339Y-107044586D02*
X163741244Y-108531104D01*
X160903339Y-107855414D02*
X163741244Y-106368896D01*
X160970908Y-106977018D02*
X160903339Y-107017557D01*
X160970908Y-106977018D02*
X163052040Y-105868882D01*
X160970908Y-107922982D02*
X163052040Y-109031118D01*
X161038480Y-106706739D02*
X163943952Y-108193261D01*
X161038480Y-108193261D02*
X163943952Y-106706739D01*
X161241185Y-106368896D02*
X164146661Y-107855414D01*
X161241185Y-108531104D02*
X164146661Y-107044586D01*
X161254698Y-106341866D02*
X162254722Y-105814827D01*
X161254698Y-108558134D02*
X162254722Y-109085173D01*
X161579034Y-106098616D02*
X164214230Y-107450000D01*
X161579034Y-108801384D02*
X164214230Y-107450000D01*
X161970932Y-105868882D02*
X164159526Y-107023598D01*
X161970932Y-109031118D02*
X164159526Y-107876402D01*
X162525000Y-105760770D02*
X163916926Y-106504034D01*
X164214230Y-107450000D02*
G75*
G02*
X160835770Y-107450000I-1689230J0D01*
G01*
X160835770Y-107450000D02*
G75*
G02*
X164214230Y-107450000I1689230J0D01*
G01*
X162525000Y-109139230D02*
X163916926Y-108395966D01*
D11*
G36*
X185140683Y-105724849D02*
G01*
X185198347Y-105743770D01*
X185254312Y-105755765D01*
X185346489Y-105762585D01*
X185446063Y-105750824D01*
X185548030Y-105714737D01*
X185656989Y-105650604D01*
X185726500Y-105596897D01*
X185780756Y-105547377D01*
X185826528Y-105497298D01*
X185861141Y-105450702D01*
X185888576Y-105403567D01*
X185907777Y-105358859D01*
X185920669Y-105313625D01*
X185928183Y-105242714D01*
X185925285Y-105197588D01*
X185916721Y-105156027D01*
X185903255Y-105119430D01*
X185884863Y-105086467D01*
X185834951Y-105032779D01*
X185767202Y-104994599D01*
X185680414Y-104973372D01*
X185623643Y-104970047D01*
X185568004Y-104973439D01*
X185501892Y-104985453D01*
X185495507Y-104986809D01*
X185526212Y-104917529D01*
X185558522Y-104842553D01*
X185592136Y-104761769D01*
X185602927Y-104736035D01*
X185613110Y-104710845D01*
X185764327Y-104719180D01*
X185851043Y-104715774D01*
X185915995Y-104703661D01*
X185949251Y-104690394D01*
X185979280Y-104671912D01*
X186020507Y-104635191D01*
X186167511Y-104475639D01*
X186186470Y-104399985D01*
X186102880Y-104474045D01*
X186032172Y-104523325D01*
X185991562Y-104543025D01*
X185950000Y-104556311D01*
X185856585Y-104567622D01*
X185827342Y-104568054D01*
X185637200Y-104556331D01*
X185575375Y-104549095D01*
X185506303Y-104749588D01*
X185356930Y-105131706D01*
X185377904Y-105152588D01*
X185439698Y-105122687D01*
X185493259Y-105105800D01*
X185548080Y-105100198D01*
X185585836Y-105103065D01*
X185621075Y-105111410D01*
X185653739Y-105125017D01*
X185683043Y-105143430D01*
X185730239Y-105193478D01*
X185747093Y-105224160D01*
X185758932Y-105258092D01*
X185766434Y-105318185D01*
X185763555Y-105366414D01*
X185755127Y-105411994D01*
X185741377Y-105454827D01*
X185722653Y-105494349D01*
X185699213Y-105530321D01*
X185671416Y-105562328D01*
X185639646Y-105590001D01*
X185604170Y-105613089D01*
X185565545Y-105631183D01*
X185523883Y-105644118D01*
X185443025Y-105653408D01*
X185388758Y-105650157D01*
X185337155Y-105639122D01*
X185243540Y-105601018D01*
X185140683Y-105724849D01*
G37*
G36*
X185372191Y-75745000D02*
G01*
X185504448Y-75745000D01*
X185733334Y-75742984D01*
X185974860Y-75745000D01*
X186060956Y-75745000D01*
X186111331Y-75688396D01*
X185954507Y-75674532D01*
X185895084Y-75665315D01*
X185873379Y-75656971D01*
X185856601Y-75644155D01*
X185846030Y-75628696D01*
X185840847Y-75610236D01*
X185840404Y-75602484D01*
X185853044Y-75514556D01*
X185912815Y-75251595D01*
X185913952Y-75246378D01*
X186018938Y-74791090D01*
X186086143Y-74525739D01*
X185911493Y-74617301D01*
X185869805Y-74638946D01*
X185609226Y-74759226D01*
X185592650Y-74766715D01*
X185655665Y-74798131D01*
X185769055Y-74756274D01*
X185832069Y-74731178D01*
X185890871Y-74710204D01*
X185691386Y-75566855D01*
X185674544Y-75627648D01*
X185657772Y-75650661D01*
X185629115Y-75662957D01*
X185542275Y-75673742D01*
X185477154Y-75682076D01*
X185433007Y-75688396D01*
X185372191Y-75745000D01*
G37*
G36*
X185307069Y-82380170D02*
G01*
X185384988Y-82301202D01*
X185412724Y-82280608D01*
X185437600Y-82269359D01*
X185475047Y-82264674D01*
X185556930Y-82277314D01*
X185596257Y-82285055D01*
X185640919Y-82294075D01*
X185714467Y-82308821D01*
X185896904Y-82345606D01*
X185951779Y-82350861D01*
X186000047Y-82340420D01*
X186035768Y-82287938D01*
X186092463Y-82201843D01*
X186155478Y-82109427D01*
X186168527Y-82088938D01*
X186184878Y-82063174D01*
X186168025Y-82014905D01*
X186087156Y-82115540D01*
X186035997Y-82171102D01*
X185999401Y-82194774D01*
X185962220Y-82199736D01*
X185918165Y-82193416D01*
X185584014Y-82139028D01*
X185542275Y-82132508D01*
X185645766Y-82035839D01*
X185800562Y-81893089D01*
X185987408Y-81718791D01*
X186043541Y-81665996D01*
X186092463Y-81620056D01*
X186129077Y-81558916D01*
X186155038Y-81501365D01*
X186168696Y-81455670D01*
X186176394Y-81408695D01*
X186178558Y-81363876D01*
X186175678Y-81322623D01*
X186167240Y-81284925D01*
X186153936Y-81251823D01*
X186135909Y-81222627D01*
X186113824Y-81197949D01*
X186087707Y-81177551D01*
X186024341Y-81150544D01*
X185962220Y-81143325D01*
X185861401Y-81154790D01*
X185760462Y-81189578D01*
X185713000Y-81215201D01*
X185668548Y-81246024D01*
X185657772Y-81254699D01*
X185621932Y-81286486D01*
X185592817Y-81320404D01*
X185571509Y-81354253D01*
X185556038Y-81389992D01*
X185542430Y-81465665D01*
X185542275Y-81475159D01*
X185547839Y-81521477D01*
X185548595Y-81525626D01*
X185697614Y-81542387D01*
X185677945Y-81472560D01*
X185672426Y-81418464D01*
X185675301Y-81378500D01*
X185683699Y-81342561D01*
X185696753Y-81311919D01*
X185714348Y-81285582D01*
X185735571Y-81264313D01*
X185760532Y-81247630D01*
X185820377Y-81229026D01*
X185846724Y-81227405D01*
X185877292Y-81230273D01*
X185905676Y-81238621D01*
X185955355Y-81270941D01*
X185992969Y-81323125D01*
X186014036Y-81393261D01*
X186016809Y-81433210D01*
X186013483Y-81490214D01*
X186001927Y-81543230D01*
X185986276Y-81582826D01*
X185963537Y-81623679D01*
X185888566Y-81719886D01*
X185703934Y-81903622D01*
X185436751Y-82158761D01*
X185366722Y-82235552D01*
X185298643Y-82319446D01*
X185307069Y-82380170D01*
G37*
G36*
X185275562Y-90089587D02*
G01*
X185338326Y-90120366D01*
X185397552Y-90141162D01*
X185497278Y-90156188D01*
X185523316Y-90156723D01*
X185628003Y-90145477D01*
X185737411Y-90110820D01*
X185846765Y-90052230D01*
X185948367Y-89971795D01*
X185993242Y-89925214D01*
X186033008Y-89875382D01*
X186066098Y-89824480D01*
X186093161Y-89771634D01*
X186112589Y-89720621D01*
X186125651Y-89668836D01*
X186132305Y-89598567D01*
X186121092Y-89530849D01*
X186107389Y-89500114D01*
X186088825Y-89472819D01*
X186054636Y-89441214D01*
X186018781Y-89421039D01*
X185973575Y-89406892D01*
X185918165Y-89397158D01*
X185968540Y-89359331D01*
X186033661Y-89311063D01*
X186081930Y-89275434D01*
X186118358Y-89224162D01*
X186142826Y-89176611D01*
X186154019Y-89140848D01*
X186159153Y-89104045D01*
X186159599Y-89088680D01*
X186156729Y-89058235D01*
X186148359Y-89030509D01*
X186116723Y-88984566D01*
X186066394Y-88952539D01*
X185998459Y-88937897D01*
X185983286Y-88937463D01*
X185940183Y-88941099D01*
X185881827Y-88954832D01*
X185876125Y-88956422D01*
X185817323Y-88990036D01*
X185779811Y-89015342D01*
X185729121Y-89050944D01*
X185668213Y-89092893D01*
X185666106Y-89145283D01*
X185731857Y-89107074D01*
X185792343Y-89078778D01*
X185839294Y-89063101D01*
X185878118Y-89057196D01*
X185880338Y-89057172D01*
X185907472Y-89060018D01*
X185931839Y-89068213D01*
X185970968Y-89099046D01*
X185993900Y-89146457D01*
X185997941Y-89181004D01*
X185994981Y-89214469D01*
X185985982Y-89246807D01*
X185950355Y-89307274D01*
X185885511Y-89368468D01*
X185778727Y-89434907D01*
X185608739Y-89511360D01*
X185584224Y-89520898D01*
X185577904Y-89575486D01*
X185734159Y-89518585D01*
X185766081Y-89511473D01*
X185794242Y-89510457D01*
X185826882Y-89513330D01*
X185857064Y-89521721D01*
X185908788Y-89553780D01*
X185946911Y-89604722D01*
X185967887Y-89672764D01*
X185970647Y-89711865D01*
X185959380Y-89798216D01*
X185924614Y-89887696D01*
X185876125Y-89959436D01*
X185846126Y-89990266D01*
X185813073Y-90015826D01*
X185739623Y-90050618D01*
X185655946Y-90064235D01*
X185645132Y-90064399D01*
X185579412Y-90060048D01*
X185510010Y-90041312D01*
X185372191Y-89982517D01*
X185275562Y-90089587D01*
G37*
G36*
X186109029Y-96893521D02*
G01*
X186105011Y-96909562D01*
X186002154Y-97382539D01*
X185970647Y-97515071D01*
X186067275Y-97517086D01*
X186144945Y-97515071D01*
X186067275Y-97624248D01*
X186033661Y-97624248D01*
X185983286Y-97624248D01*
X185945459Y-97624248D01*
X185924760Y-97718324D01*
X185913082Y-97789272D01*
X185909739Y-97840494D01*
X185910112Y-97853851D01*
X185916045Y-97883932D01*
X185932820Y-97916148D01*
X185928606Y-97932909D01*
X185754309Y-97995924D01*
X185732776Y-97989004D01*
X185714048Y-97975799D01*
X185710253Y-97972843D01*
X185798456Y-97624248D01*
X185724908Y-97624248D01*
X185571676Y-97622141D01*
X185426779Y-97620034D01*
X185344897Y-97617928D01*
X185360105Y-97584940D01*
X185388968Y-97529389D01*
X185404994Y-97506645D01*
X185491809Y-97506645D01*
X185602817Y-97510526D01*
X185666106Y-97512964D01*
X185769055Y-97515071D01*
X185825750Y-97515071D01*
X185845415Y-97430761D01*
X185871912Y-97319524D01*
X185910527Y-97150238D01*
X185930713Y-97065084D01*
X185949672Y-96985217D01*
X185966434Y-96917989D01*
X185622853Y-97334488D01*
X185491809Y-97506645D01*
X185404994Y-97506645D01*
X185418353Y-97487685D01*
X185758522Y-97069297D01*
X185873265Y-96939891D01*
X185958007Y-96844350D01*
X186008474Y-96785457D01*
X186039981Y-96768695D01*
X186052185Y-96762435D01*
X186088250Y-96745523D01*
X186121864Y-96726655D01*
X186155478Y-96714016D01*
X186109029Y-96893521D01*
G37*
G36*
X163052160Y-104452281D02*
G01*
X163402404Y-104600000D01*
X163463794Y-104548466D01*
X163515478Y-104492095D01*
X163555088Y-104434720D01*
X163586541Y-104372310D01*
X163625377Y-104231768D01*
X163634386Y-104106140D01*
X163616368Y-103918700D01*
X163561564Y-103727864D01*
X163470579Y-103542913D01*
X163412615Y-103456351D01*
X163347969Y-103376521D01*
X163277979Y-103304899D01*
X163202971Y-103241827D01*
X163126809Y-103190111D01*
X163047420Y-103148040D01*
X162970406Y-103118026D01*
X162891728Y-103098007D01*
X162786033Y-103088087D01*
X162718318Y-103093603D01*
X162656837Y-103113451D01*
X162564729Y-103178929D01*
X162433069Y-103325746D01*
X162382006Y-103390558D01*
X162248470Y-103550939D01*
X162148702Y-103637670D01*
X162105096Y-103659102D01*
X162059639Y-103671033D01*
X161987945Y-103676029D01*
X161863271Y-103658240D01*
X161749596Y-103606157D01*
X161700372Y-103568571D01*
X161658264Y-103524653D01*
X161624790Y-103476206D01*
X161600046Y-103423306D01*
X161585446Y-103369539D01*
X161580401Y-103313182D01*
X161585480Y-103251917D01*
X161602272Y-103202758D01*
X161623562Y-103173102D01*
X161653455Y-103148232D01*
X161747754Y-103108338D01*
X161856494Y-103084717D01*
X161698224Y-102862993D01*
X161630919Y-102875141D01*
X161572847Y-102895666D01*
X161528361Y-102921396D01*
X161491563Y-102953900D01*
X161442849Y-103034750D01*
X161422778Y-103143354D01*
X161422425Y-103161946D01*
X161440290Y-103296491D01*
X161496447Y-103442373D01*
X161592805Y-103591032D01*
X161724216Y-103726402D01*
X161798015Y-103782541D01*
X161875641Y-103829386D01*
X161951042Y-103863786D01*
X162027618Y-103887652D01*
X162139473Y-103901270D01*
X162207147Y-103896354D01*
X162269924Y-103880705D01*
X162374199Y-103823621D01*
X162488360Y-103714865D01*
X162553758Y-103635729D01*
X162660592Y-103509934D01*
X162751287Y-103424781D01*
X162805390Y-103388499D01*
X162859218Y-103364554D01*
X162967584Y-103346907D01*
X162981378Y-103346741D01*
X163103604Y-103364671D01*
X163221009Y-103418409D01*
X163326559Y-103506981D01*
X163371927Y-103563250D01*
X163410179Y-103625623D01*
X163440413Y-103692964D01*
X163461966Y-103764586D01*
X163476410Y-103891158D01*
X163458468Y-104025869D01*
X163404452Y-104157560D01*
X163365854Y-104215365D01*
X163320418Y-104265881D01*
X163311399Y-104274228D01*
X163256391Y-104317562D01*
X163196902Y-104349682D01*
X163056720Y-104390488D01*
X163015084Y-104398499D01*
X163052160Y-104452281D01*
G37*
G36*
X163161483Y-102695345D02*
G01*
X163285595Y-102632696D01*
X163420136Y-102537515D01*
X163314385Y-102399268D01*
X163208524Y-102288827D01*
X163120054Y-102348646D01*
X163094365Y-102366057D01*
X162959836Y-102446803D01*
X162990592Y-102482164D01*
X163000283Y-102493845D01*
X163062314Y-102568599D01*
X163067401Y-102574445D01*
X163115516Y-102636890D01*
X163161483Y-102695345D01*
G37*
G36*
X163449885Y-101432707D02*
G01*
X163382621Y-101214207D01*
X162582628Y-100661107D01*
X161900897Y-100206266D01*
X162752570Y-100236306D01*
X163449885Y-100280125D01*
X163379397Y-100065143D01*
X163164725Y-99918102D01*
X162882020Y-99695554D01*
X162565569Y-99442693D01*
X162293294Y-99239553D01*
X162108030Y-99113532D01*
X161942726Y-99013576D01*
X161815344Y-98947626D01*
X161698481Y-98898253D01*
X161600537Y-98867024D01*
X161508316Y-98847605D01*
X161393556Y-98838702D01*
X161309084Y-98843784D01*
X161238345Y-98860607D01*
X161171832Y-98889113D01*
X161143732Y-98944984D01*
X161118050Y-99023496D01*
X161176870Y-99134852D01*
X161255803Y-99238625D01*
X161313965Y-99189343D01*
X161373446Y-99153521D01*
X161486630Y-99119927D01*
X161574979Y-99114207D01*
X161739170Y-99132965D01*
X161937222Y-99194863D01*
X162112655Y-99275554D01*
X162252251Y-99353671D01*
X162397160Y-99446952D01*
X162731827Y-99699057D01*
X163090408Y-99997878D01*
X163085585Y-99997567D01*
X162794679Y-99981172D01*
X162320897Y-99960949D01*
X161467561Y-99913907D01*
X161544791Y-100108813D01*
X161937674Y-100359397D01*
X162839140Y-100972749D01*
X163016403Y-101100048D01*
X162428418Y-101004329D01*
X161601944Y-100851360D01*
X161570622Y-100776485D01*
X161524294Y-100709879D01*
X161494379Y-100676678D01*
X161494590Y-100697111D01*
X161505503Y-101285651D01*
X161518200Y-101404315D01*
X161541420Y-101489713D01*
X161573013Y-101571826D01*
X161611979Y-101647612D01*
X161657933Y-101716851D01*
X161710129Y-101778710D01*
X161767516Y-101832314D01*
X161829875Y-101877660D01*
X161895348Y-101913663D01*
X161964492Y-101940774D01*
X162034936Y-101958208D01*
X162107832Y-101966312D01*
X162132732Y-101966866D01*
X162211823Y-101962127D01*
X162285224Y-101947712D01*
X162417852Y-101892787D01*
X162435203Y-101882896D01*
X162277226Y-101630837D01*
X162194178Y-101680511D01*
X162116495Y-101714408D01*
X162051370Y-101732156D01*
X161984878Y-101740656D01*
X161947938Y-101741772D01*
X161886276Y-101737119D01*
X161830603Y-101723305D01*
X161783868Y-101702062D01*
X161743071Y-101673037D01*
X161681596Y-101594545D01*
X161662321Y-101550237D01*
X161643555Y-101485173D01*
X161631868Y-101402726D01*
X161622020Y-101136978D01*
X161766903Y-101157774D01*
X162092432Y-101207466D01*
X163135950Y-101379362D01*
X163174379Y-101385666D01*
X163449885Y-101432707D01*
G37*
G36*
X163161483Y-99206385D02*
G01*
X163285595Y-99143736D01*
X163420136Y-99048555D01*
X163314385Y-98910307D01*
X163208524Y-98799867D01*
X163120054Y-98859686D01*
X163094365Y-98877096D01*
X162959836Y-98957843D01*
X162990592Y-98993203D01*
X163000283Y-99004884D01*
X163062314Y-99079639D01*
X163067401Y-99085484D01*
X163115516Y-99147930D01*
X163161483Y-99206385D01*
G37*
G36*
X163338217Y-96572812D02*
G01*
X163340270Y-96584410D01*
X163358294Y-96690341D01*
X163392000Y-96881877D01*
X163403657Y-96946703D01*
X163438894Y-97154012D01*
X163437406Y-97170463D01*
X163412114Y-97214504D01*
X163389704Y-97226933D01*
X163361811Y-97231388D01*
X163217317Y-97214535D01*
X163079564Y-97194459D01*
X162901511Y-97167494D01*
X162780611Y-97150788D01*
X162770078Y-97397681D01*
X162767129Y-97745471D01*
X162956746Y-97914458D01*
X163188646Y-98142702D01*
X163308705Y-98295474D01*
X163345140Y-98360402D01*
X163370158Y-98422910D01*
X163386925Y-98496270D01*
X163392000Y-98571988D01*
X163385753Y-98656014D01*
X163361811Y-98750041D01*
X163126605Y-98622400D01*
X163145986Y-98547204D01*
X163150199Y-98474535D01*
X163140429Y-98365138D01*
X163123237Y-98302923D01*
X163096502Y-98243419D01*
X163045813Y-98166117D01*
X162975517Y-98084724D01*
X162823385Y-97943347D01*
X162451469Y-97634535D01*
X161699250Y-97053335D01*
X161693970Y-97131560D01*
X161685768Y-97228018D01*
X161675656Y-97332212D01*
X161665691Y-97412812D01*
X161658950Y-97537083D01*
X161670159Y-97661191D01*
X161709293Y-97776354D01*
X161771336Y-97857721D01*
X161810721Y-97887053D01*
X161855418Y-97908529D01*
X161907327Y-97922254D01*
X161964498Y-97926894D01*
X162003516Y-97925395D01*
X162115753Y-97905702D01*
X162276933Y-97856259D01*
X162411169Y-98104947D01*
X162354076Y-98125107D01*
X162266389Y-98146283D01*
X162179480Y-98151988D01*
X162131052Y-98150008D01*
X162061684Y-98139643D01*
X161994322Y-98120087D01*
X161923436Y-98088522D01*
X161852909Y-98045554D01*
X161768923Y-97979708D01*
X161682397Y-97896706D01*
X161630912Y-97840626D01*
X161527567Y-97694806D01*
X161469313Y-97556081D01*
X161450562Y-97422923D01*
X161458567Y-97301492D01*
X161484267Y-97117083D01*
X161489981Y-97079901D01*
X161499987Y-96992812D01*
X161779264Y-96992812D01*
X162629376Y-97641277D01*
X162629376Y-97130565D01*
X161779264Y-96992812D01*
X161499987Y-96992812D01*
X161507715Y-96925547D01*
X161505562Y-96882167D01*
X161493024Y-96847896D01*
X161400297Y-96747494D01*
X161433856Y-96700453D01*
X161810868Y-96769435D01*
X162232342Y-96836124D01*
X162890278Y-96921882D01*
X163123235Y-96939030D01*
X163206972Y-96927702D01*
X163232684Y-96913411D01*
X163251511Y-96892130D01*
X163269127Y-96841716D01*
X163274323Y-96767718D01*
X163263753Y-96602983D01*
X163257617Y-96519030D01*
X163338217Y-96572812D01*
G37*
G36*
X163161483Y-96364570D02*
G01*
X163285595Y-96301922D01*
X163420136Y-96206741D01*
X163314385Y-96068493D01*
X163208524Y-95958053D01*
X163120054Y-96017871D01*
X163094365Y-96035282D01*
X162959836Y-96116029D01*
X162990592Y-96151389D01*
X163000283Y-96163070D01*
X163062314Y-96237824D01*
X163067401Y-96243670D01*
X163115516Y-96306115D01*
X163161483Y-96364570D01*
G37*
G36*
X162582921Y-94030097D02*
G01*
X162582921Y-93959462D01*
X162488838Y-93804856D01*
X162474420Y-94229859D01*
X162472132Y-94560886D01*
X162576180Y-94765903D01*
X162603144Y-94765903D01*
X162582921Y-94275268D01*
X163066815Y-94396315D01*
X163175336Y-94539408D01*
X163220151Y-94620952D01*
X163255078Y-94703833D01*
X163278368Y-94783002D01*
X163290338Y-94859125D01*
X163291762Y-94893545D01*
X163287133Y-94958071D01*
X163273487Y-95017800D01*
X163251726Y-95071404D01*
X163222000Y-95119911D01*
X163139644Y-95200927D01*
X163025692Y-95259743D01*
X162878384Y-95292248D01*
X162791309Y-95296692D01*
X162559841Y-95278622D01*
X162328518Y-95224232D01*
X162107785Y-95135051D01*
X162005372Y-95078825D01*
X161910305Y-95015983D01*
X161824777Y-94948285D01*
X161748154Y-94875448D01*
X161683835Y-94801329D01*
X161629309Y-94723622D01*
X161587613Y-94647667D01*
X161555946Y-94569494D01*
X161535955Y-94494656D01*
X161525875Y-94418664D01*
X161524714Y-94382833D01*
X161529342Y-94316289D01*
X161542979Y-94253958D01*
X161564746Y-94197807D01*
X161594474Y-94147459D01*
X161630387Y-94105182D01*
X161673076Y-94069897D01*
X161682544Y-94063656D01*
X161743593Y-94030479D01*
X161814816Y-94007076D01*
X161948085Y-93983056D01*
X161669208Y-93734368D01*
X161599951Y-93762563D01*
X161542185Y-93797703D01*
X161501652Y-93833876D01*
X161468652Y-93876529D01*
X161424643Y-93980729D01*
X161404573Y-94130195D01*
X161403667Y-94177815D01*
X161408343Y-94289268D01*
X161422312Y-94398095D01*
X161445250Y-94503264D01*
X161477156Y-94605605D01*
X161567653Y-94801508D01*
X161694654Y-94986508D01*
X161843891Y-95145603D01*
X162033474Y-95297258D01*
X162252392Y-95425392D01*
X162369039Y-95477607D01*
X162487656Y-95520440D01*
X162605319Y-95552985D01*
X162722483Y-95575417D01*
X162902097Y-95589050D01*
X162990370Y-95584416D01*
X163071708Y-95570734D01*
X163143013Y-95549359D01*
X163207220Y-95520222D01*
X163262028Y-95485099D01*
X163309637Y-95443315D01*
X163348887Y-95396340D01*
X163380705Y-95343509D01*
X163420880Y-95221489D01*
X163429515Y-95122009D01*
X163424529Y-95014076D01*
X163408385Y-94907083D01*
X163346318Y-94702001D01*
X163224644Y-94436615D01*
X163519421Y-94514706D01*
X163718357Y-94577739D01*
X163794674Y-94611134D01*
X163856405Y-94649963D01*
X163897095Y-94687111D01*
X163928667Y-94729395D01*
X163965011Y-94825978D01*
X163973493Y-94920362D01*
X163957887Y-95171562D01*
X163943304Y-95283356D01*
X164165028Y-95424480D01*
X164181881Y-95182533D01*
X164177172Y-95092360D01*
X164162964Y-95005009D01*
X164139951Y-94922564D01*
X164107752Y-94842236D01*
X164014338Y-94685468D01*
X163875418Y-94527414D01*
X163805698Y-94463433D01*
X163714023Y-94391466D01*
X163617524Y-94332055D01*
X163423857Y-94250612D01*
X163107115Y-94161109D01*
X162582921Y-94030097D01*
G37*
G36*
X162809920Y-93510153D02*
G01*
X162803179Y-93214570D01*
X162809920Y-93070076D01*
X162699515Y-92997326D01*
X162599022Y-92919565D01*
X162598161Y-92918841D01*
X162598161Y-92949176D01*
X162594791Y-93224682D01*
X162598161Y-93379141D01*
X162738931Y-93493439D01*
X162809920Y-93540488D01*
X162809920Y-93510153D01*
G37*
G36*
X163392000Y-92711039D02*
G01*
X163392000Y-92499427D01*
X163388775Y-92133210D01*
X163392000Y-91746769D01*
X163392000Y-91609016D01*
X163301434Y-91528415D01*
X163279252Y-91779333D01*
X163264505Y-91874410D01*
X163251154Y-91909139D01*
X163230648Y-91935983D01*
X163205914Y-91952897D01*
X163176378Y-91961189D01*
X163163974Y-91961898D01*
X163023290Y-91941674D01*
X162602552Y-91846041D01*
X162594205Y-91844221D01*
X161865744Y-91676243D01*
X161441183Y-91568715D01*
X161587682Y-91848155D01*
X161622314Y-91914856D01*
X161814762Y-92331783D01*
X161826745Y-92358304D01*
X161877010Y-92257480D01*
X161810039Y-92076057D01*
X161769885Y-91975233D01*
X161736326Y-91881151D01*
X163106968Y-92200327D01*
X163204238Y-92227274D01*
X163241057Y-92254110D01*
X163260731Y-92299960D01*
X163277987Y-92438904D01*
X163291323Y-92543098D01*
X163301434Y-92613733D01*
X163392000Y-92711039D01*
G37*
G36*
X163392000Y-90576015D02*
G01*
X163392000Y-90431521D01*
X163387242Y-90324948D01*
X163372698Y-90228244D01*
X163351127Y-90149342D01*
X163321150Y-90076542D01*
X163238739Y-89950568D01*
X163136717Y-89850174D01*
X163027736Y-89773014D01*
X162911510Y-89713351D01*
X162639487Y-89621709D01*
X161816193Y-89403356D01*
X161865808Y-89398529D01*
X162931277Y-89297263D01*
X163324882Y-89275715D01*
X163197240Y-89110997D01*
X162922489Y-88964458D01*
X162460039Y-88667105D01*
X161806228Y-88213845D01*
X161953946Y-88247550D01*
X162253046Y-88324780D01*
X162802722Y-88472177D01*
X163150199Y-88566727D01*
X163251810Y-88596948D01*
X163334680Y-88610142D01*
X163345105Y-88610397D01*
X163377521Y-88605971D01*
X163403986Y-88593743D01*
X163423961Y-88574828D01*
X163435847Y-88551098D01*
X163438894Y-88529797D01*
X163432300Y-88465903D01*
X163378517Y-88150097D01*
X163358294Y-87992121D01*
X163349363Y-87941614D01*
X163344812Y-87911521D01*
X163260401Y-87841032D01*
X163270513Y-87968674D01*
X163271567Y-87986463D01*
X163277254Y-88106427D01*
X163272656Y-88158666D01*
X163259223Y-88201762D01*
X163239992Y-88232409D01*
X163214424Y-88254936D01*
X163149534Y-88274216D01*
X163142286Y-88274368D01*
X163076599Y-88271639D01*
X162970699Y-88252533D01*
X162335845Y-88099685D01*
X161983717Y-88010520D01*
X161672999Y-87922102D01*
X161419201Y-87841032D01*
X161364128Y-87816290D01*
X161332784Y-87786383D01*
X161319257Y-87726727D01*
X161332153Y-87609197D01*
X161348273Y-87518339D01*
X161161281Y-87380586D01*
X161144849Y-87454115D01*
X161141057Y-87515115D01*
X161146539Y-87585830D01*
X161166156Y-87656081D01*
X161201581Y-87733468D01*
X161262833Y-87845570D01*
X161325176Y-87940074D01*
X161429166Y-88056015D01*
X162177282Y-88593545D01*
X162524289Y-88832204D01*
X162730639Y-88973244D01*
X162852125Y-89057215D01*
X161983109Y-89146802D01*
X161361169Y-89232044D01*
X161442648Y-89336092D01*
X161426217Y-89489873D01*
X161422425Y-89608374D01*
X161427343Y-89713125D01*
X161443007Y-89806088D01*
X161464943Y-89875984D01*
X161495860Y-89941717D01*
X161585804Y-90065517D01*
X161644295Y-90125680D01*
X161728047Y-90201124D01*
X161814028Y-90266249D01*
X161900117Y-90319947D01*
X161985852Y-90362247D01*
X162065693Y-90391261D01*
X162143001Y-90408912D01*
X162214505Y-90414668D01*
X162294454Y-90409609D01*
X162375624Y-90392956D01*
X162524889Y-90337438D01*
X162346103Y-90082009D01*
X162186221Y-90150696D01*
X162066509Y-90183540D01*
X161988385Y-90189574D01*
X161927058Y-90184918D01*
X161871448Y-90171088D01*
X161824035Y-90149640D01*
X161782008Y-90120272D01*
X161714806Y-90038907D01*
X161668811Y-89922547D01*
X161648129Y-89763463D01*
X161647666Y-89732644D01*
X161651403Y-89623046D01*
X161667889Y-89490697D01*
X162508932Y-89713232D01*
X162830588Y-89810279D01*
X163007961Y-89875724D01*
X163010688Y-89877138D01*
X163066506Y-89916114D01*
X163110175Y-89960128D01*
X163137771Y-90002157D01*
X163157370Y-90049844D01*
X163173646Y-90172721D01*
X163156940Y-90421409D01*
X163392000Y-90576015D01*
G37*
G36*
X163055677Y-86300397D02*
G01*
X163267582Y-86602721D01*
X163377981Y-86772421D01*
X163428935Y-86863790D01*
X163438894Y-86911933D01*
X163425017Y-86948141D01*
X163402173Y-86961173D01*
X163368406Y-86965715D01*
X163266703Y-86954357D01*
X163069159Y-86915303D01*
X163313787Y-87263658D01*
X163415349Y-87434307D01*
X163433606Y-87482677D01*
X163438894Y-87520097D01*
X163436902Y-87539458D01*
X163424834Y-87569346D01*
X163402492Y-87595468D01*
X163364264Y-87620835D01*
X163314200Y-87640028D01*
X163247599Y-87653278D01*
X163169983Y-87657850D01*
X163126802Y-87656787D01*
X163000146Y-87644184D01*
X162863496Y-87619182D01*
X162593355Y-87542034D01*
X162403221Y-87459812D01*
X162302432Y-87392309D01*
X162218947Y-87293517D01*
X162080562Y-87086615D01*
X162040525Y-87008526D01*
X162036761Y-86992533D01*
X162167903Y-86992533D01*
X162168185Y-87004826D01*
X162188829Y-87087122D01*
X162215545Y-87127478D01*
X162254249Y-87165309D01*
X162326321Y-87213617D01*
X162423479Y-87261297D01*
X162578354Y-87321252D01*
X162815362Y-87380882D01*
X163012006Y-87399050D01*
X163108354Y-87387729D01*
X163161784Y-87358355D01*
X163175461Y-87337161D01*
X163180094Y-87311709D01*
X163174358Y-87278212D01*
X163135690Y-87188653D01*
X163065789Y-87069762D01*
X163026760Y-87017478D01*
X162931260Y-86888339D01*
X162816954Y-86858150D01*
X162702868Y-86832827D01*
X162561378Y-86800997D01*
X162211574Y-86706915D01*
X162185105Y-86835087D01*
X162167903Y-86992533D01*
X162036761Y-86992533D01*
X162019046Y-86917267D01*
X162013297Y-86797627D01*
X162016886Y-86676395D01*
X162032728Y-86532318D01*
X162063709Y-86374256D01*
X162074686Y-86384017D01*
X162184756Y-86471709D01*
X162502878Y-86554503D01*
X162951652Y-86655290D01*
X163089236Y-86673356D01*
X163139228Y-86661254D01*
X163156501Y-86633056D01*
X163148631Y-86600892D01*
X163118710Y-86544451D01*
X162954854Y-86297027D01*
X163055677Y-86300397D01*
G37*
G36*
X161324533Y-85623649D02*
G01*
X161499362Y-85855484D01*
X161577728Y-85823616D01*
X161665628Y-85773537D01*
X161734421Y-85727843D01*
X161719937Y-85711623D01*
X161552997Y-85509490D01*
X161475768Y-85553161D01*
X161449129Y-85566929D01*
X161368203Y-85603572D01*
X161324533Y-85623649D01*
G37*
G36*
X163005265Y-85496008D02*
G01*
X163035454Y-85553161D01*
X163155695Y-85781204D01*
X163175464Y-85832378D01*
X163180094Y-85865596D01*
X163175550Y-85886607D01*
X163162500Y-85903695D01*
X163110829Y-85924491D01*
X163086012Y-85926120D01*
X162980517Y-85912253D01*
X162584972Y-85815184D01*
X162047003Y-85690914D01*
X162030530Y-85695322D01*
X162018999Y-85707423D01*
X162013297Y-85731214D01*
X162031561Y-85794906D01*
X162128101Y-85977639D01*
X162309173Y-86262002D01*
X162403402Y-86268743D01*
X162304594Y-86080652D01*
X162289096Y-86023572D01*
X162293719Y-86004150D01*
X162307319Y-85991025D01*
X162346249Y-85983126D01*
X162410527Y-85989650D01*
X162527554Y-86016563D01*
X162632013Y-86043649D01*
X163154834Y-86181878D01*
X163244792Y-86199157D01*
X163304512Y-86201625D01*
X163354999Y-86197058D01*
X163395243Y-86183841D01*
X163420382Y-86165970D01*
X163435232Y-86142634D01*
X163438894Y-86121025D01*
X163418675Y-86038819D01*
X163330720Y-85874495D01*
X163280918Y-85795108D01*
X163156501Y-85603572D01*
X163128472Y-85557037D01*
X163099348Y-85509490D01*
X163005265Y-85496008D01*
G37*
G36*
X163330743Y-85185624D02*
G01*
X162541009Y-84987494D01*
X162487226Y-84903377D01*
X162306572Y-84605651D01*
X162278302Y-84544819D01*
X162272097Y-84506971D01*
X162276592Y-84490592D01*
X162289299Y-84479140D01*
X162315768Y-84473412D01*
X162471054Y-84499596D01*
X162877038Y-84597683D01*
X163174049Y-84669050D01*
X163297184Y-84685024D01*
X163344084Y-84679941D01*
X163393446Y-84663119D01*
X163448273Y-84634612D01*
X163333761Y-84420492D01*
X163111383Y-84085439D01*
X163058461Y-84013112D01*
X162964379Y-83989518D01*
X163134134Y-84290688D01*
X163158156Y-84344408D01*
X163162655Y-84372588D01*
X163158066Y-84392384D01*
X163144699Y-84408037D01*
X163091070Y-84425547D01*
X163071944Y-84426371D01*
X162970791Y-84416908D01*
X162772011Y-84369429D01*
X162389773Y-84265024D01*
X162070450Y-84181053D01*
X162045247Y-84185632D01*
X162027089Y-84198923D01*
X162013297Y-84244947D01*
X162017378Y-84293023D01*
X162041256Y-84353806D01*
X162218208Y-84653004D01*
X162233882Y-84678639D01*
X162241909Y-84691765D01*
X162303845Y-84791063D01*
X162406480Y-84953789D01*
X162105896Y-84880945D01*
X162057115Y-84873189D01*
X162035482Y-84877684D01*
X162020620Y-84890390D01*
X162013297Y-84916859D01*
X162031066Y-84970995D01*
X162153503Y-85212568D01*
X162285579Y-85444424D01*
X162372921Y-85464501D01*
X162285964Y-85265876D01*
X162272097Y-85205847D01*
X162288512Y-85174567D01*
X162319138Y-85165547D01*
X162446062Y-85183197D01*
X162851656Y-85279809D01*
X162974491Y-85313412D01*
X163246773Y-85390642D01*
X163428196Y-85437683D01*
X163330743Y-85185624D01*
G37*
G36*
X163178775Y-81675561D02*
G01*
X163273951Y-81822921D01*
X163349668Y-81959393D01*
X163400017Y-82069941D01*
X163437336Y-82175707D01*
X163460831Y-82270701D01*
X163474210Y-82364103D01*
X163478022Y-82448297D01*
X163473390Y-82516062D01*
X163459724Y-82579015D01*
X163437926Y-82635703D01*
X163408123Y-82687230D01*
X163325945Y-82773603D01*
X163213164Y-82837170D01*
X163068520Y-82874382D01*
X162956905Y-82881779D01*
X162721994Y-82863720D01*
X162481548Y-82808805D01*
X162245990Y-82717721D01*
X162134081Y-82659684D01*
X162029096Y-82594789D01*
X161932778Y-82524334D01*
X161845302Y-82448560D01*
X161770358Y-82371226D01*
X161705450Y-82290260D01*
X161654404Y-82211431D01*
X161613763Y-82130488D01*
X161585989Y-82053874D01*
X161568435Y-81976317D01*
X161561644Y-81890544D01*
X161566357Y-81826514D01*
X161580590Y-81769922D01*
X161601687Y-81725153D01*
X161630733Y-81686156D01*
X161711184Y-81625946D01*
X161831927Y-81584602D01*
X161951602Y-81567997D01*
X161739843Y-81319309D01*
X161646376Y-81336030D01*
X161578533Y-81360674D01*
X161528085Y-81393314D01*
X161464727Y-81468884D01*
X161419519Y-81580997D01*
X161403667Y-81712491D01*
X161422098Y-81884481D01*
X161480289Y-82073502D01*
X161582263Y-82275819D01*
X161730086Y-82484414D01*
X161871002Y-82639832D01*
X162064730Y-82807427D01*
X162282706Y-82947177D01*
X162398787Y-83005032D01*
X162518118Y-83054052D01*
X162639501Y-83093789D01*
X162762748Y-83124173D01*
X162885162Y-83144650D01*
X163008081Y-83155506D01*
X163081323Y-83157285D01*
X163171741Y-83152643D01*
X163255089Y-83138904D01*
X163327966Y-83117492D01*
X163393806Y-83088251D01*
X163450279Y-83052944D01*
X163499739Y-83010835D01*
X163541139Y-82963225D01*
X163575355Y-82909512D01*
X163621408Y-82784198D01*
X163635852Y-82646573D01*
X163617564Y-82448959D01*
X163559001Y-82223423D01*
X163458098Y-81984615D01*
X163393125Y-81867058D01*
X163319411Y-81753545D01*
X163279599Y-81699009D01*
X163178775Y-81675561D01*
G37*
G36*
X162456626Y-80273225D02*
G01*
X162574617Y-80295191D01*
X162694967Y-80327817D01*
X162912875Y-80413377D01*
X163069159Y-80505101D01*
X163172682Y-80611183D01*
X163246496Y-80714272D01*
X163324735Y-80844354D01*
X163351017Y-80895114D01*
X163419052Y-81059356D01*
X163434069Y-81125231D01*
X163438894Y-81187124D01*
X163434295Y-81243055D01*
X163421166Y-81293069D01*
X163399948Y-81337962D01*
X163370504Y-81378012D01*
X163333607Y-81411984D01*
X163287978Y-81440373D01*
X163235356Y-81461372D01*
X163173983Y-81474874D01*
X163106235Y-81479483D01*
X162914596Y-81463727D01*
X162806543Y-81441312D01*
X162701826Y-81409992D01*
X162513508Y-81326070D01*
X162364293Y-81223721D01*
X162258762Y-81113265D01*
X162216541Y-81054281D01*
X162095918Y-80848409D01*
X162054034Y-80740307D01*
X162171274Y-80740307D01*
X162171475Y-80749423D01*
X162179384Y-80798962D01*
X162198180Y-80848170D01*
X162231837Y-80903258D01*
X162277270Y-80956442D01*
X162339071Y-81011614D01*
X162411787Y-81062521D01*
X162495613Y-81109061D01*
X162587269Y-81148965D01*
X162778737Y-81202965D01*
X162964965Y-81220683D01*
X163004346Y-81219403D01*
X163126424Y-81195069D01*
X163211596Y-81146794D01*
X163262950Y-81080216D01*
X163276455Y-81039959D01*
X163281064Y-80995589D01*
X163276464Y-80949315D01*
X163261151Y-80899863D01*
X163235321Y-80851566D01*
X163194882Y-80799887D01*
X163142225Y-80750212D01*
X163070621Y-80698296D01*
X162985042Y-80649595D01*
X162869724Y-80599002D01*
X162671492Y-80539919D01*
X162504226Y-80521807D01*
X162457513Y-80523336D01*
X162328822Y-80547856D01*
X162241317Y-80594903D01*
X162189486Y-80658875D01*
X162175895Y-80697609D01*
X162171274Y-80740307D01*
X162054034Y-80740307D01*
X162031293Y-80681612D01*
X162013297Y-80565478D01*
X162017770Y-80509179D01*
X162031020Y-80456649D01*
X162052448Y-80409199D01*
X162081597Y-80367232D01*
X162117781Y-80331543D01*
X162160661Y-80302566D01*
X162209425Y-80281116D01*
X162263698Y-80267744D01*
X162322655Y-80263154D01*
X162456626Y-80273225D01*
G37*
G36*
X163429515Y-80119099D02*
G01*
X163338803Y-79880523D01*
X162521225Y-79665540D01*
X162400184Y-79483100D01*
X162322492Y-79348999D01*
X162289096Y-79259023D01*
X162293690Y-79241420D01*
X162307085Y-79227925D01*
X162363102Y-79215352D01*
X162485008Y-79232872D01*
X162898237Y-79331879D01*
X163429515Y-79484117D01*
X163338803Y-79228688D01*
X162497778Y-79020446D01*
X162385107Y-78839044D01*
X162304470Y-78692378D01*
X162272390Y-78607187D01*
X162276969Y-78587027D01*
X162290260Y-78573287D01*
X162336284Y-78563517D01*
X162496509Y-78585134D01*
X162908252Y-78684417D01*
X163142450Y-78736953D01*
X163278280Y-78751681D01*
X163334580Y-78746139D01*
X163378978Y-78726101D01*
X163429515Y-78670935D01*
X163350555Y-78523552D01*
X163262113Y-78378478D01*
X163063004Y-78103217D01*
X162985628Y-78099846D01*
X163138604Y-78355513D01*
X163157726Y-78400702D01*
X163160457Y-78432358D01*
X163155902Y-78454361D01*
X163142772Y-78471962D01*
X163092314Y-78491801D01*
X163073116Y-78492882D01*
X162936539Y-78474742D01*
X162568413Y-78382093D01*
X162196205Y-78277862D01*
X162063709Y-78254305D01*
X162037700Y-78259086D01*
X162021014Y-78273792D01*
X162013297Y-78308087D01*
X162032435Y-78378382D01*
X162137983Y-78593168D01*
X162363102Y-78986887D01*
X162171420Y-78943070D01*
X162050374Y-78919623D01*
X162031726Y-78924118D01*
X162019276Y-78936824D01*
X162013297Y-78963293D01*
X162036397Y-79040551D01*
X162159203Y-79261029D01*
X162390066Y-79631981D01*
X162060339Y-79561346D01*
X162038328Y-79565815D01*
X162022955Y-79578341D01*
X162013297Y-79611758D01*
X162019140Y-79643300D01*
X162041276Y-79692894D01*
X162127603Y-79850334D01*
X162295838Y-80132581D01*
X162390066Y-80156029D01*
X162305510Y-79980101D01*
X162289096Y-79907487D01*
X162305973Y-79874798D01*
X162353137Y-79860446D01*
X162440809Y-79872255D01*
X162707812Y-79936161D01*
X162982258Y-80004940D01*
X163300812Y-80086199D01*
X163311986Y-80088911D01*
X163429515Y-80119099D01*
G37*
G36*
X162461125Y-76720293D02*
G01*
X162585447Y-76746979D01*
X162713044Y-76784483D01*
X162950018Y-76881318D01*
X163018437Y-76920660D01*
X163098063Y-76985975D01*
X163185077Y-77086189D01*
X163235998Y-77147746D01*
X163359033Y-77311456D01*
X163391720Y-77373013D01*
X163410154Y-77431303D01*
X163420136Y-77570083D01*
X163416839Y-77646892D01*
X163403430Y-77731284D01*
X163547924Y-77768213D01*
X163646303Y-77789576D01*
X163763053Y-77815254D01*
X164013773Y-77870188D01*
X164119306Y-77892630D01*
X164139383Y-77516301D01*
X164223500Y-77620495D01*
X164226724Y-77778325D01*
X164223500Y-77993454D01*
X164220129Y-78235254D01*
X164216759Y-78349560D01*
X164109194Y-78248736D01*
X164102453Y-78127836D01*
X163046321Y-77866312D01*
X162525736Y-77755634D01*
X162396075Y-77738025D01*
X162371355Y-77739513D01*
X162320355Y-77759624D01*
X162306761Y-77778229D01*
X162302139Y-77801919D01*
X162307598Y-77840094D01*
X162335698Y-77905966D01*
X162392851Y-78043719D01*
X162305510Y-78023642D01*
X162162074Y-77773175D01*
X162030784Y-77518815D01*
X162013297Y-77469260D01*
X162026802Y-77437768D01*
X162057115Y-77422219D01*
X162362516Y-77492707D01*
X162232125Y-77310076D01*
X162164533Y-77217201D01*
X162100267Y-77121600D01*
X162068246Y-77056001D01*
X162238392Y-77056001D01*
X162238969Y-77071231D01*
X162249021Y-77122964D01*
X162273870Y-77185034D01*
X162354751Y-77322526D01*
X162496898Y-77523042D01*
X162565680Y-77538397D01*
X162617652Y-77549860D01*
X162835859Y-77600272D01*
X163064177Y-77650683D01*
X163171595Y-77674131D01*
X163227438Y-77543303D01*
X163245454Y-77418848D01*
X163238438Y-77356582D01*
X163222019Y-77307760D01*
X163195898Y-77261233D01*
X163156302Y-77213166D01*
X163104979Y-77167828D01*
X163033335Y-77120233D01*
X162946647Y-77076078D01*
X162819215Y-77023622D01*
X162601873Y-76963334D01*
X162423039Y-76945066D01*
X162403783Y-76945495D01*
X162309187Y-76964549D01*
X162256441Y-77002709D01*
X162242993Y-77027587D01*
X162238392Y-77056001D01*
X162068246Y-77056001D01*
X162032055Y-76981858D01*
X162013297Y-76884542D01*
X162021871Y-76832321D01*
X162039386Y-76797617D01*
X162065746Y-76767732D01*
X162103933Y-76741055D01*
X162151191Y-76721074D01*
X162210691Y-76707708D01*
X162278692Y-76703119D01*
X162461125Y-76720293D01*
G37*
G36*
X162951483Y-75736650D02*
G01*
X163124455Y-75998942D01*
X163193781Y-76134054D01*
X163196947Y-76153279D01*
X163179652Y-76188938D01*
X163125439Y-76213451D01*
X163086012Y-76217173D01*
X162931312Y-76198019D01*
X162658978Y-76133203D01*
X162633763Y-76126580D01*
X162383179Y-76062568D01*
X162147826Y-76002191D01*
X162057115Y-75985338D01*
X162035482Y-75989738D01*
X162020620Y-76001778D01*
X162013297Y-76025638D01*
X162030899Y-76075289D01*
X162158688Y-76315866D01*
X162295691Y-76546461D01*
X162386549Y-76569909D01*
X162311804Y-76412643D01*
X162289196Y-76329342D01*
X162289096Y-76324738D01*
X162293675Y-76305456D01*
X162306966Y-76290291D01*
X162352990Y-76277697D01*
X162471694Y-76296786D01*
X162769913Y-76371779D01*
X163104056Y-76455292D01*
X163198786Y-76471377D01*
X163274323Y-76475826D01*
X163326807Y-76471342D01*
X163371651Y-76458708D01*
X163405646Y-76439956D01*
X163428611Y-76415871D01*
X163438894Y-76381744D01*
X163433609Y-76345095D01*
X163415371Y-76298711D01*
X163297771Y-76102868D01*
X163072530Y-75756873D01*
X163293167Y-75799352D01*
X163361665Y-75803914D01*
X163394412Y-75799400D01*
X163419096Y-75786556D01*
X163433274Y-75768774D01*
X163438848Y-75745876D01*
X163438894Y-75743391D01*
X163421348Y-75683167D01*
X163327418Y-75502461D01*
X163120534Y-75184478D01*
X163079271Y-75128485D01*
X162978301Y-75105038D01*
X163132174Y-75373821D01*
X163168430Y-75449006D01*
X163180094Y-75491479D01*
X163175235Y-75507544D01*
X163159977Y-75519288D01*
X163099348Y-75528408D01*
X162936513Y-75510759D01*
X162582828Y-75433480D01*
X162328647Y-75363811D01*
X162067218Y-75282340D01*
X161999962Y-75259644D01*
X162025743Y-75307274D01*
X162047003Y-75346985D01*
X162048702Y-75350394D01*
X162104156Y-75471256D01*
X162123084Y-75505162D01*
X162141085Y-75538520D01*
X162816954Y-75703091D01*
X162951483Y-75736650D01*
G37*
G36*
X162972000Y-74080683D02*
G01*
X163112539Y-74322649D01*
X163173703Y-74455324D01*
X163180241Y-74490572D01*
X163163392Y-74527282D01*
X163103534Y-74569268D01*
X163022265Y-74588025D01*
X162948234Y-74579550D01*
X162723574Y-74528632D01*
X162646082Y-74510648D01*
X162459411Y-74467294D01*
X162457917Y-74466978D01*
X162363835Y-74443531D01*
X162349669Y-74156067D01*
X162346982Y-74110872D01*
X162249529Y-73983230D01*
X162249529Y-74413342D01*
X162170692Y-74395545D01*
X162098294Y-74379637D01*
X161792600Y-74299036D01*
X161705258Y-74278813D01*
X161735447Y-74335966D01*
X161758983Y-74390795D01*
X161772376Y-74419937D01*
X161794224Y-74464698D01*
X161809452Y-74497313D01*
X161809882Y-74498182D01*
X161829529Y-74544354D01*
X161967282Y-74574542D01*
X162128629Y-74611472D01*
X162249529Y-74638436D01*
X162252900Y-74698813D01*
X162252900Y-74779560D01*
X162256270Y-74829972D01*
X162267097Y-74847018D01*
X162276494Y-74863531D01*
X162304709Y-74899910D01*
X162326759Y-74927424D01*
X162335982Y-74939715D01*
X162363835Y-74977690D01*
X162363835Y-74897090D01*
X162363835Y-74742484D01*
X162363835Y-74668625D01*
X162511553Y-74702184D01*
X163045456Y-74828616D01*
X163142405Y-74844420D01*
X163213800Y-74846678D01*
X163309192Y-74829956D01*
X163358269Y-74808280D01*
X163398724Y-74780631D01*
X163425296Y-74751578D01*
X163438159Y-74721156D01*
X163438894Y-74712295D01*
X163420430Y-74644621D01*
X163331463Y-74480249D01*
X163112349Y-74162480D01*
X163055970Y-74087424D01*
X162972000Y-74080683D01*
G37*
G36*
X163032230Y-72936601D02*
G01*
X163077019Y-72981342D01*
X163247472Y-73180255D01*
X163359654Y-73359166D01*
X163420454Y-73513111D01*
X163438894Y-73642219D01*
X163436168Y-73684914D01*
X163406162Y-73778249D01*
X163378892Y-73817463D01*
X163344067Y-73850661D01*
X163299750Y-73878749D01*
X163247999Y-73899512D01*
X163185781Y-73913103D01*
X163116347Y-73917725D01*
X163005166Y-73912086D01*
X162888180Y-73896073D01*
X162760759Y-73868842D01*
X162636686Y-73832874D01*
X162439658Y-73752121D01*
X162319285Y-73675778D01*
X162204854Y-73557330D01*
X162073821Y-73366713D01*
X162043764Y-73302819D01*
X162154421Y-73302819D01*
X162162897Y-73348250D01*
X162185331Y-73390195D01*
X162220784Y-73431271D01*
X162277455Y-73477530D01*
X162349027Y-73521092D01*
X162441531Y-73564285D01*
X162547681Y-73602329D01*
X162665745Y-73634251D01*
X162793507Y-73658925D01*
X162619190Y-73410257D01*
X162508055Y-73292891D01*
X162411384Y-73233375D01*
X162353684Y-73217110D01*
X162292321Y-73212107D01*
X162224223Y-73221950D01*
X162172236Y-73254534D01*
X162158993Y-73276914D01*
X162154421Y-73302819D01*
X162043764Y-73302819D01*
X162034307Y-73282716D01*
X162018268Y-73224172D01*
X162013297Y-73161695D01*
X162018108Y-73110135D01*
X162049771Y-73036336D01*
X162076420Y-73008794D01*
X162109688Y-72988381D01*
X162152292Y-72974782D01*
X162201609Y-72970160D01*
X162237460Y-72971500D01*
X162349313Y-72997357D01*
X162405577Y-73026182D01*
X162460975Y-73066646D01*
X162529975Y-73134002D01*
X162601825Y-73222219D01*
X162615275Y-73240253D01*
X162781415Y-73468188D01*
X162914554Y-73669036D01*
X163025086Y-73665666D01*
X163102865Y-73652184D01*
X163179400Y-73614841D01*
X163229730Y-73553258D01*
X163242939Y-73515659D01*
X163247505Y-73474131D01*
X163234784Y-73386778D01*
X163207828Y-73315603D01*
X163164265Y-73235491D01*
X163070160Y-73100139D01*
X162934630Y-72933230D01*
X163032230Y-72936601D01*
G37*
G36*
X163429515Y-72765729D02*
G01*
X163332062Y-72507076D01*
X162373067Y-72255017D01*
X162315669Y-72172032D01*
X162278851Y-72098836D01*
X162262368Y-72044110D01*
X162255597Y-71989417D01*
X162255244Y-71972770D01*
X162260261Y-71924014D01*
X162276620Y-71881819D01*
X162336349Y-71813711D01*
X162359585Y-71794717D01*
X162040262Y-71693893D01*
X162019196Y-71766140D01*
X162013297Y-71818164D01*
X162032343Y-71909151D01*
X162107380Y-72040034D01*
X162204833Y-72174417D01*
X162251874Y-72238164D01*
X162050374Y-72197864D01*
X162022083Y-72213700D01*
X162013297Y-72241535D01*
X162030544Y-72298424D01*
X162142670Y-72537155D01*
X162278838Y-72785952D01*
X162369697Y-72795917D01*
X162349779Y-72754791D01*
X162282887Y-72611697D01*
X162272097Y-72554117D01*
X162276784Y-72524938D01*
X162290835Y-72504821D01*
X162336903Y-72490330D01*
X162342732Y-72490223D01*
X162454768Y-72506824D01*
X162692683Y-72564082D01*
X163429515Y-72765729D01*
G37*
%TO.C,J2*%
D12*
X186920000Y-93180000D02*
X186920000Y-91850000D01*
X188030000Y-93180000D02*
X186920000Y-93180000D01*
X189490000Y-88950000D02*
X189080000Y-88950000D01*
X189490000Y-89670000D02*
X189080000Y-89670000D01*
X189490000Y-91490000D02*
X189140000Y-91490000D01*
X189490000Y-92210000D02*
X189140000Y-92210000D01*
X189490000Y-93180000D02*
X189490000Y-87980000D01*
X198120000Y-87980000D02*
X189490000Y-87980000D01*
X198120000Y-90580000D02*
X189490000Y-90580000D01*
X198120000Y-90698095D02*
X189490000Y-90698095D01*
X198120000Y-90816190D02*
X189490000Y-90816190D01*
X198120000Y-90934286D02*
X189490000Y-90934286D01*
X198120000Y-91052381D02*
X189490000Y-91052381D01*
X198120000Y-91170476D02*
X189490000Y-91170476D01*
X198120000Y-91288571D02*
X189490000Y-91288571D01*
X198120000Y-91406667D02*
X189490000Y-91406667D01*
X198120000Y-91524762D02*
X189490000Y-91524762D01*
X198120000Y-91642857D02*
X189490000Y-91642857D01*
X198120000Y-91760952D02*
X189490000Y-91760952D01*
X198120000Y-91879048D02*
X189490000Y-91879048D01*
X198120000Y-91997143D02*
X189490000Y-91997143D01*
X198120000Y-92115238D02*
X189490000Y-92115238D01*
X198120000Y-92233333D02*
X189490000Y-92233333D01*
X198120000Y-92351429D02*
X189490000Y-92351429D01*
X198120000Y-92469524D02*
X189490000Y-92469524D01*
X198120000Y-92587619D02*
X189490000Y-92587619D01*
X198120000Y-92705714D02*
X189490000Y-92705714D01*
X198120000Y-92823810D02*
X189490000Y-92823810D01*
X198120000Y-92941905D02*
X189490000Y-92941905D01*
X198120000Y-93060000D02*
X189490000Y-93060000D01*
X198120000Y-93180000D02*
X189490000Y-93180000D01*
X198120000Y-93180000D02*
X198120000Y-87980000D01*
%TO.C,J5*%
X186890000Y-78130000D02*
X186890000Y-76800000D01*
X188000000Y-78130000D02*
X186890000Y-78130000D01*
X189460000Y-73900000D02*
X189050000Y-73900000D01*
X189460000Y-74620000D02*
X189050000Y-74620000D01*
X189460000Y-76440000D02*
X189110000Y-76440000D01*
X189460000Y-77160000D02*
X189110000Y-77160000D01*
X189460000Y-78130000D02*
X189460000Y-72930000D01*
X198090000Y-72930000D02*
X189460000Y-72930000D01*
X198090000Y-75530000D02*
X189460000Y-75530000D01*
X198090000Y-75648095D02*
X189460000Y-75648095D01*
X198090000Y-75766190D02*
X189460000Y-75766190D01*
X198090000Y-75884286D02*
X189460000Y-75884286D01*
X198090000Y-76002381D02*
X189460000Y-76002381D01*
X198090000Y-76120476D02*
X189460000Y-76120476D01*
X198090000Y-76238571D02*
X189460000Y-76238571D01*
X198090000Y-76356667D02*
X189460000Y-76356667D01*
X198090000Y-76474762D02*
X189460000Y-76474762D01*
X198090000Y-76592857D02*
X189460000Y-76592857D01*
X198090000Y-76710952D02*
X189460000Y-76710952D01*
X198090000Y-76829048D02*
X189460000Y-76829048D01*
X198090000Y-76947143D02*
X189460000Y-76947143D01*
X198090000Y-77065238D02*
X189460000Y-77065238D01*
X198090000Y-77183333D02*
X189460000Y-77183333D01*
X198090000Y-77301429D02*
X189460000Y-77301429D01*
X198090000Y-77419524D02*
X189460000Y-77419524D01*
X198090000Y-77537619D02*
X189460000Y-77537619D01*
X198090000Y-77655714D02*
X189460000Y-77655714D01*
X198090000Y-77773810D02*
X189460000Y-77773810D01*
X198090000Y-77891905D02*
X189460000Y-77891905D01*
X198090000Y-78010000D02*
X189460000Y-78010000D01*
X198090000Y-78130000D02*
X189460000Y-78130000D01*
X198090000Y-78130000D02*
X198090000Y-72930000D01*
%TO.C,Q1*%
X166600000Y-100440000D02*
X174820000Y-100440000D01*
X166600000Y-103910000D02*
X166600000Y-100440000D01*
X169110000Y-100440000D02*
X169110000Y-100660000D01*
X172310000Y-100440000D02*
X172310000Y-100660000D01*
X174820000Y-100440000D02*
X174820000Y-103910000D01*
X174820000Y-103910000D02*
X166600000Y-103910000D01*
%TO.C,J3*%
X186920000Y-101930000D02*
X186920000Y-100600000D01*
X188030000Y-101930000D02*
X186920000Y-101930000D01*
X189490000Y-95160000D02*
X189080000Y-95160000D01*
X189490000Y-95880000D02*
X189080000Y-95880000D01*
X189490000Y-97700000D02*
X189080000Y-97700000D01*
X189490000Y-98420000D02*
X189080000Y-98420000D01*
X189490000Y-100240000D02*
X189140000Y-100240000D01*
X189490000Y-100960000D02*
X189140000Y-100960000D01*
X189490000Y-101930000D02*
X189490000Y-94190000D01*
X198120000Y-94190000D02*
X189490000Y-94190000D01*
X198120000Y-96790000D02*
X189490000Y-96790000D01*
X198120000Y-99330000D02*
X189490000Y-99330000D01*
X198120000Y-99448095D02*
X189490000Y-99448095D01*
X198120000Y-99566190D02*
X189490000Y-99566190D01*
X198120000Y-99684286D02*
X189490000Y-99684286D01*
X198120000Y-99802381D02*
X189490000Y-99802381D01*
X198120000Y-99920476D02*
X189490000Y-99920476D01*
X198120000Y-100038571D02*
X189490000Y-100038571D01*
X198120000Y-100156667D02*
X189490000Y-100156667D01*
X198120000Y-100274762D02*
X189490000Y-100274762D01*
X198120000Y-100392857D02*
X189490000Y-100392857D01*
X198120000Y-100510952D02*
X189490000Y-100510952D01*
X198120000Y-100629048D02*
X189490000Y-100629048D01*
X198120000Y-100747143D02*
X189490000Y-100747143D01*
X198120000Y-100865238D02*
X189490000Y-100865238D01*
X198120000Y-100983333D02*
X189490000Y-100983333D01*
X198120000Y-101101429D02*
X189490000Y-101101429D01*
X198120000Y-101219524D02*
X189490000Y-101219524D01*
X198120000Y-101337619D02*
X189490000Y-101337619D01*
X198120000Y-101455714D02*
X189490000Y-101455714D01*
X198120000Y-101573810D02*
X189490000Y-101573810D01*
X198120000Y-101691905D02*
X189490000Y-101691905D01*
X198120000Y-101810000D02*
X189490000Y-101810000D01*
X198120000Y-101930000D02*
X189490000Y-101930000D01*
X198120000Y-101930000D02*
X198120000Y-94190000D01*
%TO.C,J4*%
X186920000Y-108105000D02*
X186920000Y-106775000D01*
X188030000Y-108105000D02*
X186920000Y-108105000D01*
X189490000Y-103875000D02*
X189080000Y-103875000D01*
X189490000Y-104595000D02*
X189080000Y-104595000D01*
X189490000Y-106415000D02*
X189140000Y-106415000D01*
X189490000Y-107135000D02*
X189140000Y-107135000D01*
X189490000Y-108105000D02*
X189490000Y-102905000D01*
X198120000Y-102905000D02*
X189490000Y-102905000D01*
X198120000Y-105505000D02*
X189490000Y-105505000D01*
X198120000Y-105623095D02*
X189490000Y-105623095D01*
X198120000Y-105741190D02*
X189490000Y-105741190D01*
X198120000Y-105859286D02*
X189490000Y-105859286D01*
X198120000Y-105977381D02*
X189490000Y-105977381D01*
X198120000Y-106095476D02*
X189490000Y-106095476D01*
X198120000Y-106213571D02*
X189490000Y-106213571D01*
X198120000Y-106331667D02*
X189490000Y-106331667D01*
X198120000Y-106449762D02*
X189490000Y-106449762D01*
X198120000Y-106567857D02*
X189490000Y-106567857D01*
X198120000Y-106685952D02*
X189490000Y-106685952D01*
X198120000Y-106804048D02*
X189490000Y-106804048D01*
X198120000Y-106922143D02*
X189490000Y-106922143D01*
X198120000Y-107040238D02*
X189490000Y-107040238D01*
X198120000Y-107158333D02*
X189490000Y-107158333D01*
X198120000Y-107276429D02*
X189490000Y-107276429D01*
X198120000Y-107394524D02*
X189490000Y-107394524D01*
X198120000Y-107512619D02*
X189490000Y-107512619D01*
X198120000Y-107630714D02*
X189490000Y-107630714D01*
X198120000Y-107748810D02*
X189490000Y-107748810D01*
X198120000Y-107866905D02*
X189490000Y-107866905D01*
X198120000Y-107985000D02*
X189490000Y-107985000D01*
X198120000Y-108105000D02*
X189490000Y-108105000D01*
X198120000Y-108105000D02*
X198120000Y-102905000D01*
%TO.C,U1*%
D13*
X166430000Y-98023000D02*
X166430000Y-80878000D01*
X168335000Y-99928000D02*
X182305000Y-99928000D01*
D14*
X170825000Y-78973000D02*
X170828728Y-78062728D01*
X171328728Y-77563000D02*
X179324000Y-77563000D01*
X179824000Y-78063000D02*
X179824000Y-78973000D01*
D13*
X182305000Y-78973000D02*
X168335000Y-78973000D01*
X184210000Y-98023000D02*
X184210000Y-80878000D01*
X166430000Y-80874000D02*
G75*
G02*
X168335000Y-78969000I1905001J-1D01*
G01*
X168335000Y-99928000D02*
G75*
G02*
X166430000Y-98023000I0J1905000D01*
G01*
D14*
X170828728Y-78062728D02*
G75*
G02*
X171328728Y-77562998I500022J-292D01*
G01*
X179324000Y-77563000D02*
G75*
G02*
X179824000Y-78063000I0J-500000D01*
G01*
D13*
X182305000Y-78973000D02*
G75*
G02*
X184210000Y-80878000I0J-1905000D01*
G01*
X184210000Y-98023000D02*
G75*
G02*
X182305000Y-99928000I-1905000J0D01*
G01*
D15*
X166472000Y-79389000D02*
G75*
G02*
X165968000Y-79389000I-252000J0D01*
G01*
X165968000Y-79389000D02*
G75*
G02*
X166472000Y-79389000I252000J0D01*
G01*
X167746000Y-80106000D02*
G75*
G02*
X167242000Y-80106000I-252000J0D01*
G01*
X167242000Y-80106000D02*
G75*
G02*
X167746000Y-80106000I252000J0D01*
G01*
%TO.C,J1*%
D12*
X186890000Y-86880000D02*
X186890000Y-85550000D01*
X188000000Y-86880000D02*
X186890000Y-86880000D01*
X189460000Y-80110000D02*
X189050000Y-80110000D01*
X189460000Y-80830000D02*
X189050000Y-80830000D01*
X189460000Y-82650000D02*
X189050000Y-82650000D01*
X189460000Y-83370000D02*
X189050000Y-83370000D01*
X189460000Y-85190000D02*
X189110000Y-85190000D01*
X189460000Y-85910000D02*
X189110000Y-85910000D01*
X189460000Y-86880000D02*
X189460000Y-79140000D01*
X198090000Y-79140000D02*
X189460000Y-79140000D01*
X198090000Y-81740000D02*
X189460000Y-81740000D01*
X198090000Y-84280000D02*
X189460000Y-84280000D01*
X198090000Y-84398095D02*
X189460000Y-84398095D01*
X198090000Y-84516190D02*
X189460000Y-84516190D01*
X198090000Y-84634286D02*
X189460000Y-84634286D01*
X198090000Y-84752381D02*
X189460000Y-84752381D01*
X198090000Y-84870476D02*
X189460000Y-84870476D01*
X198090000Y-84988571D02*
X189460000Y-84988571D01*
X198090000Y-85106667D02*
X189460000Y-85106667D01*
X198090000Y-85224762D02*
X189460000Y-85224762D01*
X198090000Y-85342857D02*
X189460000Y-85342857D01*
X198090000Y-85460952D02*
X189460000Y-85460952D01*
X198090000Y-85579048D02*
X189460000Y-85579048D01*
X198090000Y-85697143D02*
X189460000Y-85697143D01*
X198090000Y-85815238D02*
X189460000Y-85815238D01*
X198090000Y-85933333D02*
X189460000Y-85933333D01*
X198090000Y-86051429D02*
X189460000Y-86051429D01*
X198090000Y-86169524D02*
X189460000Y-86169524D01*
X198090000Y-86287619D02*
X189460000Y-86287619D01*
X198090000Y-86405714D02*
X189460000Y-86405714D01*
X198090000Y-86523810D02*
X189460000Y-86523810D01*
X198090000Y-86641905D02*
X189460000Y-86641905D01*
X198090000Y-86760000D02*
X189460000Y-86760000D01*
X198090000Y-86880000D02*
X189460000Y-86880000D01*
X198090000Y-86880000D02*
X198090000Y-79140000D01*
%TO.C,R1*%
X181276359Y-76670000D02*
X181583641Y-76670000D01*
X181276359Y-77430000D02*
X181583641Y-77430000D01*
%TD*%
M02*
